<svg width="20" height="12" viewBox="0 0 20 12" fill="none" xmlns="http://www.w3.org/2000/svg">
<g clip-path="url(#clip0_4_93)">
<path d="M10 3.08301C11.61 3.08301 12.917 4.38901 12.917 6.00001C12.917 7.61001 11.611 8.91701 10 8.91701C8.39001 8.91701 7.08301 7.61001 7.08301 6.00001C7.08301 4.39001 8.38901 3.08301 10 3.08301ZM10 4.75001C9.31001 4.75001 8.75001 5.31001 8.75001 6.00001C8.75001 6.69001 9.31001 7.25001 10 7.25001C10.69 7.25001 11.25 6.69001 11.25 6.00001C11.25 5.31001 10.69 4.75001 10 4.75001Z" fill="black"/>
<path d="M10 0.166992C5.393 0.166992 1.858 2.48499 0.206 5.60999L0 5.99999L0.206 6.38999C1.858 9.51499 5.393 11.833 10 11.833C14.607 11.833 18.142 9.51499 19.794 6.38999L20 5.99999L19.794 5.60999C18.142 2.48499 14.607 0.166992 10 0.166992ZM10.27 1.83699C13.794 1.92399 16.512 3.57099 17.963 5.81699L18.077 5.99999L17.963 6.18299C16.472 8.49199 13.643 10.167 9.973 10.167L9.678 10.163C6.153 10.076 3.435 8.42899 1.985 6.18299L1.869 5.99999L1.985 5.81699C3.475 3.50799 6.305 1.83299 9.974 1.83299L10.269 1.83699H10.27Z" fill="black"/>
</g>
<defs>
<clipPath id="clip0_4_93">
<rect width="20" height="12" fill="white"/>
</clipPath>
</defs>
</svg>
