<svg width="38" height="48" viewBox="0 0 40 48" fill="none" xmlns="http://www.w3.org/2000/svg"
    class="css-v27cu7">
    <path
        d="M17.486 5.63672C8.22263 5.63672 0.686035 13.151 0.686035 22.3878C0.686035 26.3585 3.01091 31.0009 7.79303 36.579C10.9326 40.2401 14.0444 43.0232 14.1756 43.1408C15.1178 43.9805 16.3019 44.4003 17.486 44.4003C18.6701 44.4003 19.853 43.9805 20.7965 43.1408C20.9276 43.0244 24.0395 40.2413 27.179 36.579C31.9612 31.0009 34.286 26.3585 34.286 22.3878C34.2848 13.151 26.7494 5.63672 17.486 5.63672Z"
        fill="white"></path>
    <path
        d="M17.4943 38.1938C16.3415 38.1938 15.1899 37.7859 14.2717 36.9702C14.1863 36.8946 12.1502 35.0796 10.1069 32.7044C6.77967 28.837 5.23096 25.6592 5.23096 22.7034C5.23096 15.9749 10.7327 10.5 17.4943 10.5C24.256 10.5 29.7577 15.9737 29.7577 22.7034C29.7577 25.6592 28.2078 28.837 24.8817 32.7044C22.8384 35.0796 20.8035 36.8934 20.7169 36.9702C19.7987 37.7859 18.6459 38.1938 17.4943 38.1938Z"
        fill="#8DCFF0"></path>
    <path
        d="M17.4861 31.0943C16.5415 31.0943 15.5992 30.7596 14.8472 30.0914C14.7509 30.0063 13.8833 29.2277 12.9964 28.1961C11.3358 26.2647 10.562 24.5781 10.562 22.8867C10.562 19.084 13.6691 15.9902 17.4885 15.9902C21.308 15.9902 24.415 19.084 24.415 22.8867C24.415 24.5781 23.6413 26.2647 21.9806 28.1961C21.0938 29.2277 20.2249 30.0063 20.1299 30.0914C19.3778 30.7596 18.4295 31.0943 17.4861 31.0943Z"
        fill="#1A9EE0"></path>
    <path
        d="M20.738 0C9.30321 0 0 9.3047 0 20.7425C0 25.6592 2.86984 31.4078 8.77291 38.315C12.6484 42.8485 16.4897 46.2947 16.6516 46.4403C17.8147 47.4801 19.2763 48 20.738 48C22.1997 48 23.6598 47.4801 24.8244 46.4403C24.9863 46.2962 28.8276 42.85 32.7031 38.315C38.6062 31.4078 41.476 25.6592 41.476 20.7425C41.4745 9.3047 32.1728 0 20.738 0Z"
        fill="white"></path>
    <path
        d="M20.7483 40.315C19.3253 40.315 17.9037 39.8099 16.7703 38.7998C16.6649 38.7062 14.1515 36.4588 11.6293 33.5177C7.52209 28.7287 5.61035 24.7938 5.61035 21.1337C5.61035 12.8019 12.4017 6.02246 20.7483 6.02246C29.0949 6.02246 35.8863 12.8004 35.8863 21.1337C35.8863 24.7938 33.973 28.7287 29.8673 33.5177C27.3451 36.4588 24.8332 38.7048 24.7263 38.7998C23.5929 39.8099 22.1699 40.315 20.7483 40.315Z"
        fill="#8DCFF0"></path>
    <path
        d="M20.738 31.5238C19.572 31.5238 18.4089 31.1093 17.4805 30.282C17.3617 30.1765 16.2907 29.2125 15.1959 27.935C13.146 25.5435 12.1909 23.455 12.1909 21.3605C12.1909 16.6517 16.0263 12.8208 20.741 12.8208C25.4558 12.8208 29.2911 16.6517 29.2911 21.3605C29.2911 23.455 28.336 25.5435 26.2861 27.935C25.1913 29.2125 24.1189 30.1765 24.0015 30.282C23.0731 31.1093 21.9026 31.5238 20.738 31.5238Z"
        fill="#1A9EE0"></path>
</svg>